<svg width="12" height="12" viewBox="0 0 12 12" fill="none" xmlns="http://www.w3.org/2000/svg">
<g id="Icon/Font Awesome Free/Solid/I/info-circle">
<path id="Vector" d="M6 1C3.23877 1 1 3.23958 1 6C1 8.76204 3.23877 11 6 11C8.76123 11 11 8.76204 11 6C11 3.23958 8.76123 1 6 1ZM6 3.21774C6.46766 3.21774 6.84677 3.59685 6.84677 4.06452C6.84677 4.53218 6.46766 4.91129 6 4.91129C5.53234 4.91129 5.15323 4.53218 5.15323 4.06452C5.15323 3.59685 5.53234 3.21774 6 3.21774ZM7.12903 8.33871C7.12903 8.47232 7.02071 8.58065 6.8871 8.58065H5.1129C4.97929 8.58065 4.87097 8.47232 4.87097 8.33871V7.85484C4.87097 7.72123 4.97929 7.6129 5.1129 7.6129H5.35484V6.32258H5.1129C4.97929 6.32258 4.87097 6.21425 4.87097 6.08065V5.59677C4.87097 5.46317 4.97929 5.35484 5.1129 5.35484H6.40323C6.53683 5.35484 6.64516 5.46317 6.64516 5.59677V7.6129H6.8871C7.02071 7.6129 7.12903 7.72123 7.12903 7.85484V8.33871Z" fill="#4B5563"/>
</g>
</svg>
